<svg width="469" height="73" viewBox="0 0 469 73" fill="none" xmlns="http://www.w3.org/2000/svg">
<g clip-path="url(#clip0_37057_1284)">
<path d="M56.5 21.8V34.3H67.6C70.5 34.3 73 31.9 73 28.9V5.4C73 2.4 70.6 0 67.6 0H44C41.1 0 38.6 2.4 38.6 5.4V16.5H51.1C54.1 16.4 56.5 18.8 56.5 21.8ZM16.4 21.8V34.3H5.4C2.5 34.3 0 31.9 0 28.9V5.4C0 2.4 2.4 0 5.4 0H29C31.9 0 34.4 2.4 34.4 5.4V16.5H21.8C18.8 16.4 16.4 18.8 16.4 21.8Z" fill="#007BC2"/>
<path d="M16.4 51.2V38.7H5.4C2.5 38.7 0 41.0999 0 44.0999V67.6999C0 70.6999 2.4 73.0999 5.4 73.0999H29C31.9 73.0999 34.4 70.6999 34.4 67.6999V56.5999H21.8C18.8 56.5999 16.4 54.2 16.4 51.2ZM56.5 51.2V38.7H67.6C70.5 38.7 73 41.0999 73 44.0999V67.6999C73 70.6999 70.6 73.0999 67.6 73.0999H44C41.1 73.0999 38.6 70.6999 38.6 67.6999V56.5999H51.1C54.1 56.5999 56.5 54.2 56.5 51.2Z" fill="#1D8553"/>
<path d="M200.199 55.0999H200.299L200.199 54.8999V55.0999Z" fill="#555555"/>
<path d="M120.999 43.9C119.799 52.1 114.199 57.0999 105.899 57.0999C94.4994 57.0999 89.3994 46.5 89.3994 36.4C89.3994 26.3 94.4994 15.7 105.899 15.7C114.099 15.7 119.699 20.4 120.999 28.9L113.399 29.9C112.599 25.7 110.799 22 105.899 22C98.9994 22 97.5994 31.1999 97.5994 36.2999C97.5994 41.3999 98.9994 50.5999 105.899 50.5999C110.699 50.5999 112.599 46.8 113.399 42.7L120.999 43.9Z" fill="#555555"/>
<path d="M133.2 16.3999H125.6V56.4999H133.2V16.3999Z" fill="#555555"/>
<path d="M155.7 39.1001C155.7 35.9001 154.4 32.7001 150.8 32.7001C147.3 32.7001 146 36.1001 145.8 39.1001H155.7ZM145.5 43.9001C145.2 47.4001 147.3 51.5001 151.2 51.5001C153.6 51.5001 155.2 49.9001 156 47.3001L163.1 48.1001C161.5 53.8001 155.9 57.1001 150.5 57.1001C142.1 57.1001 137.8 49.7001 137.8 42.1001C137.8 34.5001 142 27.1001 150.5 27.1001C157.8 27.1001 163.3 30.6001 163.1 44.0001L145.5 43.9001Z" fill="#555555"/>
<path d="M209.9 39.1001C209.9 35.9001 208.6 32.7001 205 32.7001C201.5 32.7001 200.2 36.1001 200 39.1001H209.9ZM199.7 43.9001C199.4 47.4001 201.5 51.5001 205.4 51.5001C207.8 51.5001 209.4 49.9001 210.2 47.3001L217.3 48.1001C215.7 53.8001 210.1 57.1001 204.7 57.1001C196.3 57.1001 192 49.7001 192 42.1001C192 34.5001 196.2 27.1001 204.7 27.1001C212 27.1001 217.5 30.6001 217.3 44.0001L199.7 43.9001Z" fill="#555555"/>
<path d="M182 56.5H174L165 27.7H173L178.1 49H178.2L183.1 27.7H190.7L182 56.5Z" fill="#555555"/>
<path d="M230.1 16.3999H222.5V56.4999H230.1V16.3999Z" fill="#555555"/>
<path d="M251.5 43.3001C248.4 43.9001 242.1 44.2001 242.1 48.4001C242.1 50.1001 242.9 51.5001 244.7 51.5001C247.8 51.5001 250 49.6001 251.5 47.7001V43.3001ZM251.9 53.9001C249.1 55.9001 247.3 57.2001 243.7 57.2001C238.7 57.2001 234.6 53.8001 234.6 48.7001C234.6 40.6001 245.3 38.9001 251.4 38.2001C251.9 34.2001 250.6 32.7001 247.7 32.7001C245.3 32.7001 243.5 33.8001 243.1 36.3001L235.8 35.2001C237.5 29.1001 241.6 27.1001 247.7 27.1001C255.5 27.1001 259 30.8001 259 36.2001V50.5001C259 52.6001 259.1 54.6001 260 56.5001H252.7C252.2 55.2001 251.9 53.9001 251.9 53.9001Z" fill="#555555"/>
<path d="M272.899 30.7001C275.299 28.7001 278.299 27.1001 281.499 27.1001C284.699 27.1001 289.099 29.0001 289.099 36.1001V56.5001H281.499V39.2001C281.499 36.9001 281.699 33.2001 278.399 33.2001C276.199 33.2001 274.399 34.8001 272.999 36.3001V56.5001H265.399V27.7001H272.999L272.899 30.7001Z" fill="#555555"/>
<path d="M367.7 43.9C366.5 52.1 360.9 57.0999 352.6 57.0999C341.2 57.0999 336.1 46.5 336.1 36.4C336.1 26.3 341.2 15.7 352.6 15.7C360.8 15.7 366.4 20.4 367.7 28.9L360.1 29.9C359.3 25.7 357.5 22 352.6 22C345.7 22 344.3 31.1999 344.3 36.2999C344.3 41.3999 345.7 50.5999 352.6 50.5999C357.4 50.5999 359.3 46.8 360.1 42.7L367.7 43.9Z" fill="#555555"/>
<path d="M379.999 16.3999H372.399V56.4999H379.999V16.3999Z" fill="#555555"/>
<path d="M393.999 56.4999H386.399V27.6999H393.999V56.4999ZM393.999 23.3999H386.399V16.3999H393.999V23.3999Z" fill="#555555"/>
<path d="M407.8 30.7001C410.2 28.7001 413.2 27.1001 416.4 27.1001C419.6 27.1001 424 29.0001 424 36.1001V56.5001H416.4V39.2001C416.4 36.9001 416.6 33.2001 413.3 33.2001C411.1 33.2001 409.3 34.8001 407.9 36.3001V56.5001H400.3V27.7001H407.9V30.7001H407.8Z" fill="#555555"/>
<path d="M437.9 56.4999H430.3V27.6999H437.9V56.4999ZM437.9 23.3999H430.3V16.3999H437.9V23.3999Z" fill="#555555"/>
<path d="M467.399 47.2001C466.199 53.2001 461.799 57.1001 455.399 57.1001C446.999 57.1001 442.699 49.7001 442.699 42.1001C442.699 34.5001 446.899 27.1001 455.399 27.1001C461.799 27.1001 466.199 31.0001 467.399 37.0001L460.499 37.9001C459.999 35.6001 459.199 32.6001 455.399 32.6001C451.299 32.6001 450.599 38.4001 450.599 42.0001C450.599 45.6001 451.299 51.4001 455.399 51.4001C459.299 51.4001 459.799 48.8001 460.499 46.2001L467.399 47.2001Z" fill="#555555"/>
<path d="M311.999 47.3999C310.799 49.1999 309.299 50.6999 307.099 50.6999C302.499 50.6999 301.899 45.0999 301.899 41.6999C301.899 38.4999 302.799 33.0999 306.999 33.0999C309.199 33.0999 310.799 34.5999 312.099 36.1999L311.999 47.3999ZM319.699 51.3999V16.3999H312.099V30.4999C309.899 28.5999 308.099 26.9999 304.999 26.9999C300.799 26.9999 294.399 30.6999 294.399 41.2999C294.399 53.4999 299.799 57.0999 305.599 57.0999C308.799 57.0999 310.499 55.9999 312.799 53.8999C312.799 53.8999 312.999 55.2999 313.699 56.3999H320.699C319.899 54.8999 319.699 53.0999 319.699 51.3999Z" fill="#555555"/>
</g>
<defs>
<clipPath id="clip0_37057_1284">
<rect width="469" height="73" fill="white"/>
</clipPath>
</defs>
</svg>
